<?xml version="1.0" encoding="UTF-8"?><svg id="Layer_2" xmlns="http://www.w3.org/2000/svg" viewBox="0 0 180.25 117.68"><defs><style>.cls-1{fill:#fff;stroke-width:0px;}</style></defs><g id="Layer_1-2"><path class="cls-1" d="M153.43,26.81h-55.11c-2.64-4.35-5.81-8.35-9.41-11.92h76.43l-11.92,11.92Z"/><path class="cls-1" d="M168.33,11.92h-82.65c-6.15-5.28-13.34-9.37-21.24-11.92h115.8l-11.92,11.92Z"/><path class="cls-1" d="M114.7,72.99h-9.08c.9-3.85,1.44-7.83,1.59-11.92h19.41l-11.92,11.92Z"/><path class="cls-1" d="M129.6,58.1h-22.35c-.05-4.08-.49-8.06-1.29-11.92h35.56l-11.92,11.92Z"/><path class="cls-1" d="M45.43,117.68c32.5,0,58.84-26.35,58.84-58.84S77.93,0,45.43,0h-18.62l-11.92,11.92h30.54c25.92,0,46.92,21.01,46.92,46.92s-21.01,46.93-46.92,46.93H11.92v-28.3L0,89.38v28.3h45.43Z"/><path class="cls-1" d="M14.9,74.48v28.3h30.54c24.27,0,43.95-19.67,43.95-43.94S69.7,14.9,45.43,14.9H11.92L0,26.81h45.43c17.69,0,32.03,14.34,32.03,32.03s-14.34,32.03-32.03,32.03h-18.62v-28.3l-11.92,11.92Z"/><path class="cls-1" d="M100.55,111.84c-3.28,0-5.96-2.67-5.96-5.96s2.67-5.96,5.96-5.96,5.96,2.67,5.96,5.96-2.67,5.96-5.96,5.96ZM100.55,101.04c-2.67,0-4.84,2.17-4.84,4.84s2.17,4.84,4.84,4.84,4.84-2.17,4.84-4.84-2.17-4.84-4.84-4.84Z"/><path class="cls-1" d="M101.5,108.86l-1.32-2.32h-.56v2.32h-1.19v-5.96h2.24c.46,0,.85.08,1.18.25.32.16.57.38.73.66.16.27.25.58.25.92,0,.39-.11.75-.34,1.07-.23.31-.57.53-1.02.65l1.43,2.42h-1.39ZM99.62,105.64h1c.32,0,.57-.08.73-.23.16-.16.24-.38.24-.66s-.08-.48-.24-.63c-.16-.15-.4-.23-.73-.23h-1v1.75h0Z"/></g></svg>