<!DOCTYPE svg PUBLIC "-//W3C//DTD SVG 1.1//EN" "http://www.w3.org/Graphics/SVG/1.1/DTD/svg11.dtd">
<!-- Uploaded to: SVG Repo, www.svgrepo.com, Transformed by: SVG Repo Mixer Tools -->
<svg height="800px" width="800px" version="1.1" id="Capa_1" xmlns="http://www.w3.org/2000/svg" xmlns:xlink="http://www.w3.org/1999/xlink" viewBox="0 0 24.077 24.077" xml:space="preserve" fill="#ffffff" stroke="#ffffff">
<g id="SVGRepo_bgCarrier" stroke-width="0"/>
<g id="SVGRepo_tracerCarrier" stroke-linecap="round" stroke-linejoin="round"/>
<g id="SVGRepo_iconCarrier"> <g> <path style="fill:#ffffff;" d="M2,6.577v4.461h16.189l1.396-1.395c0.44-0.439,1.158-0.439,1.597,0l1.396,1.395h1.499v2h-1.5 l-1.394,1.394c-0.44,0.44-1.158,0.44-1.597,0l-1.395-1.394H2V17.5h1.42l1.397-1.396c0.44-0.439,1.158-0.439,1.597,0L7.811,17.5 h16.266v2H7.808l-1.395,1.394c-0.439,0.44-1.157,0.44-1.596,0L3.422,19.5H2v4.538H0.077H0v-24h0.077H2v4.539h6.958l1.396-1.396 c0.44-0.439,1.158-0.439,1.597,0l1.397,1.396h10.729v2h-10.73l-1.395,1.394c-0.439,0.44-1.157,0.44-1.596,0L8.96,6.577H2z"/> </g> </g>
</svg>